<?xml version="1.0" encoding="UTF-8"?>
<svg width="22px" height="29px" viewBox="0 0 22 29" version="1.1" xmlns="http://www.w3.org/2000/svg" xmlns:xlink="http://www.w3.org/1999/xlink">
    <!-- Generator: Sketch 52.6 (67491) - http://www.bohemiancoding.com/sketch -->
    <title>Group</title>
    <desc>Created with Sketch.</desc>
    <g id="Welcome" stroke="none" stroke-width="1" fill="none" fill-rule="evenodd">
        <g id="Performance---mobile" transform="translate(-261.000000, -533.000000)" fill="#FFFFFF" fill-rule="nonzero" stroke="#FFFFFF">
            <g id="Group-8" transform="translate(-1.000000, 489.000000)">
                <g id="Group-4" transform="translate(9.000000, 0.000000)">
                    <g id="Agressive" transform="translate(242.000000, 35.000000)">
                        <g id="Group" transform="translate(12.000000, 9.000000)">
                            <path d="M10.2371241,27.998329 C10.4851289,28.0153387 10.7240085,27.9015866 10.8671241,27.698329 C11.1261241,27.298329 10.9921241,26.857329 10.4561241,26.354329 C9.66912406,25.624329 9.55612406,25.154329 10.0211241,24.610329 L10.3031241,24.280329 L10.8201241,24.834329 C11.4180542,25.509466 12.3135881,25.8414927 13.2071241,25.719329 C13.5351241,25.719329 13.9271241,25.704329 14.4401241,25.671329 L16.1791241,25.553329 L16.7791241,25.129329 C17.1941241,24.829329 17.4171241,24.711329 17.6051241,24.711329 C17.7970044,24.7302347 17.971316,24.831248 18.0831241,24.988329 C18.3501241,25.268329 18.3541241,25.293329 18.1771241,25.672329 C17.990254,26.0147454 17.7655117,26.3350872 17.5071241,26.627329 C16.9691241,27.248329 16.9301241,27.427329 17.2601241,27.759329 C17.3737753,27.8950473 17.5401696,27.9755137 17.7171241,27.980329 C17.9147048,27.9663825 18.1071722,27.9111971 18.2821241,27.818329 C19.341737,27.4239743 20.1516487,26.5506201 20.4651241,25.464329 C20.6289354,24.7290268 20.418969,23.9602728 19.9041241,23.410329 C19.6181241,23.087329 19.5421241,22.924329 19.6221241,22.810329 C19.812805,22.3990744 19.7438654,21.9141471 19.4461241,21.572329 C19.0641457,21.2707473 18.602786,21.0866204 18.1181241,21.042329 C18.0381241,21.042329 17.9181241,20.824329 17.8481241,20.542329 C17.7381241,20.104329 17.6551241,19.794329 17.6011241,19.622329 C17.3977221,18.9229206 17.5094629,18.1695831 17.9071241,17.559329 C18.1898884,16.9831577 18.414338,16.3801588 18.5771241,15.759329 C18.7966117,14.8958328 18.8245989,13.9947823 18.6591241,13.119329 C18.397556,11.9149374 17.9993095,10.7443543 17.4721241,9.63032897 C17.1125205,8.90571738 16.8817452,8.12405917 16.7901241,7.32032897 L16.7641241,7.08632897 C16.7101241,6.60932897 16.6431241,6.01632897 16.6021241,5.69332897 C16.4380488,4.91019409 16.6660741,4.09624447 17.2131241,3.51232897 C17.6771241,2.93032897 17.7431241,2.77632897 17.6831241,2.41232897 C17.6346811,2.10473744 17.4613507,1.83081033 17.2041241,1.65532897 C16.9157674,1.4646106 16.5757248,1.36720619 16.2301241,1.37632897 C16.0231254,1.37734344 15.8171115,1.40490157 15.6171241,1.45832897 C14.6171241,1.72932897 14.5231241,1.93732897 14.3361241,4.24032897 C14.3094182,4.7804126 14.2146698,5.31496807 14.0541241,5.83132897 C13.9791241,5.98232897 13.9341241,6.07232897 13.9071241,6.07232897 C13.9042377,6.07349657 13.9010105,6.07349657 13.8981241,6.07232897 C13.8640608,5.73957773 13.868759,5.40399622 13.9121241,5.07232897 C13.9596855,4.3296449 14.0461374,3.58996379 14.1711241,2.85632897 C14.3711241,1.84332897 14.3711241,1.81732897 14.1241241,1.50032897 C13.9041241,1.19832897 13.8191241,1.17532897 13.1351241,1.17532897 C12.6124625,1.12969632 12.0915572,1.28051285 11.6741241,1.59832897 C11.3302654,1.97495012 11.1503703,2.47289985 11.1741241,2.98232897 C11.1631241,3.40932897 11.1501241,4.22832897 11.1501241,4.80932897 C11.1937997,5.46195378 11.0852812,6.1158031 10.8331241,6.71932897 C10.6001241,7.35532897 10.4591241,7.61932897 10.1831241,7.61932897 C9.8819168,7.56610882 9.59733523,7.44316684 9.35212406,7.26032897 C8.96474304,7.07238353 8.65041497,6.76157144 8.45812406,6.37632897 C8.24562438,5.97591229 7.98939303,5.60028518 7.69412406,5.25632897 C7.02589409,4.70780067 6.69543565,3.8482289 6.82412406,2.99332897 C6.85912406,2.07332897 6.84812406,2.02732897 6.53012406,1.75532897 C6.34632627,1.57504012 6.0975204,1.47659954 5.84012406,1.48232897 C5.58480366,1.49151364 5.3314255,1.53044327 5.08512406,1.59832897 C4.55938445,1.68085349 4.15458848,2.10615584 4.09812406,2.63532897 C4.13957011,2.9798207 4.21459356,3.31943578 4.32212406,3.64932897 C4.44257335,4.05660737 4.54038959,4.47023989 4.61512406,4.88832897 L4.69712406,5.40632897 L4.39112406,5.12332897 C4.2630296,5.01942155 4.16212969,4.88591793 4.09712406,4.73432897 C3.9840771,4.47431999 3.83384011,4.2321218 3.65112406,4.01532897 C3.20749236,3.51646766 2.89993243,2.91168017 2.75812406,2.25932897 C2.56912406,1.25732897 2.27012406,0.998328971 1.30412406,0.998328971 C0.717124063,0.998328971 0.352124063,1.12232897 0.184124063,1.37832897 C0.00412406278,1.65832897 0.0461240628,2.10832897 0.325124063,2.75432897 C0.511152469,3.17480663 0.652916057,3.61350293 0.748124063,4.06332897 C0.797124063,4.37132897 0.954124063,5.09832897 1.10412406,5.65432897 C1.46254528,7.05943327 1.67896429,8.49697813 1.75012406,9.94532897 C1.80564427,11.0415937 1.99917059,12.1264834 2.32612406,13.174329 C2.3758984,13.2722409 2.40193343,13.3804918 2.40212406,13.490329 C2.36012406,13.490329 2.27112406,13.400329 2.15412406,13.238329 C1.94693917,12.9831574 1.79536608,12.6875047 1.70912406,12.370329 C1.71195403,11.8400678 1.50989894,11.329198 1.14512406,10.944329 C0.989420947,10.725984 0.750735086,10.5813259 0.485124063,10.544329 C0.373787604,10.54372 0.267785173,10.5919694 0.195124063,10.676329 C0.0213341419,10.9400531 -0.0388650367,11.2626774 0.0281240628,11.571329 C0.0861240628,12.116329 0.578124063,12.785329 0.921124063,12.785329 C1.02112406,12.785329 1.34912406,13.116329 1.66212406,13.539329 C2.47049445,14.5425682 3.45910653,15.3860256 4.57712406,16.026329 C5.06936841,16.2460646 5.58088002,16.4198044 6.10512406,16.545329 C7.15377563,16.7456926 8.09836328,17.3089756 8.77312406,18.136329 C9.4669508,18.8930857 9.99882959,19.7836338 10.3361241,20.753329 C10.3361241,20.853329 10.2081241,20.918329 9.98412406,20.918329 C9.23303925,20.852411 8.56170687,21.3857864 8.45612406,22.132329 C8.41889868,22.4245106 8.29647567,22.6992668 8.10412406,22.922329 C7.56706033,23.4887809 7.29022272,24.2533456 7.34012406,25.032329 C7.43578441,25.7900723 7.79342878,26.4905034 8.35112406,27.012329 C8.84506649,27.5515335 9.51245891,27.900446 10.2371241,27.998329 Z M10.2621241,23.751329 C10.0801907,23.7590851 9.90529073,23.8237981 9.76212406,23.936329 C9.19420653,24.4199523 8.99997473,25.2129983 9.28012406,25.904329 C9.4759024,26.196908 9.70034424,26.4692531 9.95012406,26.717329 C10.2751241,27.060329 10.3871241,27.196329 10.3691241,27.274329 C10.3621241,27.307329 10.3321241,27.330329 10.2691241,27.354329 C10.2301785,27.3690809 10.1887606,27.3762102 10.1471241,27.375329 C9.31814296,27.1371565 8.61864888,26.5777052 8.20412406,25.821329 C7.75282881,24.8754541 8.01069015,23.7434304 8.82712406,23.086329 C9.22712406,22.657329 9.28712406,22.571329 9.15612406,22.332329 C9.08165129,22.2093948 9.08165129,22.0552632 9.15612406,21.932329 C9.39994149,21.6450245 9.7676634,21.4933905 10.1431241,21.525329 C10.3179195,21.5252325 10.4917792,21.5508397 10.6591241,21.601329 C10.7849032,21.6456971 10.9160797,21.6729415 11.0491241,21.682329 C11.1051241,21.682329 11.1391241,21.670329 11.1491241,21.645329 C11.1591241,21.620329 11.1321241,21.557329 11.0591241,21.483329 C10.9564198,21.317493 10.9071952,21.124086 10.9181241,20.929329 C10.6152228,19.4659295 9.84273778,18.1414688 8.71812406,17.157329 C8.02203833,16.5524233 7.17863989,16.1419349 6.27312406,15.967329 C4.91501285,15.7731324 3.75678437,14.8840831 3.21812406,13.622329 C2.75816076,12.7000666 2.49395806,11.6926236 2.44212406,10.663329 C2.33266987,9.07974499 2.11954646,7.5050369 1.80412406,5.94932897 C1.70412406,5.58432897 1.51812406,4.74932897 1.39212406,4.13432897 C1.29135611,3.58475519 1.12969295,3.04811397 0.910124063,2.53432897 C0.714124063,2.17832897 0.659124063,1.96032897 0.732124063,1.82332897 C0.805124063,1.68632897 0.970124063,1.63432897 1.28912406,1.61132897 C1.38912406,1.60432897 1.45912406,1.60132897 1.52012406,1.60132897 C1.96212406,1.60132897 2.04512406,1.77932897 2.20512406,2.54232897 C2.305309,2.97780316 2.48023247,3.39261199 2.72212406,3.76832897 C2.92212406,4.05732897 3.23912406,4.54532897 3.45112406,4.87632897 C3.68363223,5.22178377 3.95176877,5.54187177 4.25112406,5.83132897 C4.55143077,6.1130383 4.80166207,6.4437494 4.99112406,6.80932897 C5.13412406,7.09132897 5.24212406,7.26632897 5.33512406,7.26632897 C5.42812406,7.26632897 5.51412406,7.06632897 5.61412406,6.75032897 C5.73305389,6.47276532 5.72019041,6.15632367 5.57912406,5.88932897 C5.15787725,4.76346595 4.88883372,3.58640049 4.77912406,2.38932897 C4.96833324,2.27995187 5.17505389,2.20416558 5.39012406,2.16532897 C5.52087508,2.13082458 5.65500383,2.11070527 5.79012406,2.10532897 C5.88310175,2.09713125 5.97525178,2.12833165 6.04412406,2.19132897 C6.17312406,2.32332897 6.19112406,2.63232897 6.17912406,3.15532897 C6.13445773,4.1056241 6.50918181,5.02762813 7.20412406,5.67732897 C7.5148739,6.05023184 7.7941643,6.44826248 8.03912406,6.86732897 C8.18094442,7.21864227 8.44924622,7.50406972 8.79112406,7.66732897 C9.04057066,7.76952525 9.27110379,7.9128479 9.47312406,8.09132897 C9.61058355,8.22019272 9.79505329,8.28674651 9.98312406,8.27532897 C10.2659794,8.26091288 10.5453927,8.20671345 10.8131241,8.11432897 C11.0913249,7.78744403 11.2886492,7.39964695 11.3891241,6.98232897 C11.6847773,6.34326843 11.7939666,5.63371105 11.7041241,4.93532897 C11.6461241,4.19332897 11.6681241,3.93532897 11.7981241,3.82732897 C11.9281241,3.71932897 11.9511241,3.50632897 11.8921241,2.94332897 C11.8351241,2.24332897 11.8301241,2.19132897 12.1391241,2.00032897 C12.5045701,1.81419517 12.9090071,1.71754158 13.3191241,1.71832897 C13.5071241,1.71832897 13.6291241,1.74732897 13.6641241,1.80032897 C13.6763761,2.09482318 13.640574,2.3893467 13.5581241,2.67232897 C13.3562624,3.62525324 13.2669845,4.59858321 13.2921241,5.57232897 C13.2505861,6.28606789 13.373761,6.99979828 13.6521241,7.65832897 C13.6794013,7.70235922 13.7264153,7.73034373 13.7781241,7.73332897 C13.9781241,7.73332897 14.2511241,7.26832897 14.4981241,6.51832897 C14.7570064,5.72702759 14.9149224,4.90620052 14.9681241,4.07532897 C14.9855952,3.61709841 15.0326935,3.16047813 15.1091241,2.70832897 C15.1921241,2.29332897 15.2661241,2.20832897 15.6731241,2.08332897 C15.8471788,2.02672698 16.0290974,1.99803852 16.2121241,1.99832897 C16.4888715,1.98376868 16.760186,2.07899827 16.9671241,2.26332897 C17.2171241,2.50232897 17.1961241,2.57632897 16.7201241,3.14732897 C15.8991241,4.12332897 15.8371241,4.51632897 16.1201241,6.96632897 C16.2081197,7.99876105 16.4871896,9.00585436 16.9431241,9.93632897 C18.1481241,12.792329 18.3521241,13.807329 18.0361241,15.370329 C17.8973141,15.9855641 17.6882767,16.5828138 17.4131241,17.150329 C16.8648021,18.0827826 16.76563,19.2126106 17.1431241,20.226329 C17.2700858,20.6269679 17.3374726,21.0440922 17.3431241,21.464329 C17.3251241,21.564329 17.3151241,21.634329 17.3431241,21.670329 C17.3711241,21.706329 17.4021241,21.705329 17.4681241,21.705329 C17.570591,21.7014657 17.6727556,21.6917834 17.7741241,21.676329 C17.8305288,21.6694761 17.8873049,21.6661364 17.9441241,21.666329 C18.4931241,21.666329 19.0621241,21.952329 19.1141241,22.254329 C19.1006362,22.4673579 19.0036049,22.6664519 18.8441241,22.808329 L18.5271241,23.138329 L18.8801241,23.327329 C19.3967789,23.6225887 19.7676386,24.1191207 19.9041241,24.698329 C19.9402757,25.3685253 19.677729,26.0203149 19.1871241,26.478329 C18.7648836,26.8399018 18.2879564,27.1322012 17.7741241,27.344329 C17.7669331,27.3449826 17.7597677,27.3428329 17.7541241,27.338329 C17.7532807,27.3360718 17.7532807,27.3335861 17.7541241,27.331329 C17.8680739,27.111328 18.0162544,26.9108286 18.1931241,26.737329 C18.8391241,26.006329 19.0191241,25.411329 18.7571241,24.863329 C18.5067767,24.396268 18.0285648,24.0959601 17.4991241,24.073329 L17.4741241,24.073329 C17.1290555,24.1350134 16.8074429,24.2899408 16.5441241,24.521329 L15.9211241,24.981329 L14.1111241,25.016329 C13.7521241,25.024329 13.4621241,25.030329 13.2111241,25.030329 C11.9981241,25.030329 11.7691241,24.904329 11.1381241,24.262329 C10.9258168,23.982145 10.6105183,23.798221 10.2621241,23.751329 Z" id="Shape" transform="translate(10.260562, 14.499164) rotate(180.000000) translate(-10.260562, -14.499164) "></path>
                        </g>
                    </g>
                </g>
            </g>
        </g>
    </g>
</svg>