<?xml version="1.0" encoding="UTF-8"?>
<svg width="25px" height="16px" viewBox="0 0 25 16" version="1.1" xmlns="http://www.w3.org/2000/svg" xmlns:xlink="http://www.w3.org/1999/xlink">
    <!-- Generator: Sketch 52.5 (67469) - http://www.bohemiancoding.com/sketch -->
    <title>Combined Shape</title>
    <desc>Created with Sketch.</desc>
    <g id="Welcome" stroke="none" stroke-width="1" fill="none" fill-rule="evenodd" stroke-linecap="round" stroke-linejoin="round">
        <g id="Performance-Click-only---desktop" transform="translate(-512.000000, -1526.000000)" fill="#E87722">
            <g id="Group-14" transform="translate(172.000000, 540.000000)">
                <path d="M359.987343,993.617407 L360.050152,993.68428 L358.71825,995.124122 L348.314366,1005.73375 L347.807836,1006.2503 C347.421154,1006.64463 346.788019,1006.65083 346.39369,1006.26415 C346.354632,1006.22585 346.318784,1006.18441 346.286504,1006.14024 L345.182085,1004.62923 C344.893371,1004.23423 344.932863,1003.68833 345.275424,1003.33899 L346.013707,1002.58611 L354.826925,993.598598 L345.95176,985.011383 L345.255668,984.337876 C344.889968,983.984041 344.848295,983.412006 345.158851,983.008905 L345.784151,982.197269 C345.822223,982.147852 345.863044,982.100616 345.906421,982.055784 C346.545271,981.395512 347.598418,981.378146 348.25869,982.016996 L358.710051,992.129268 L360.04729,993.558416 L359.987343,993.617407 Z" id="Combined-Shape" transform="translate(352.500580, 994.049572) rotate(90.000000) translate(-352.500580, -994.049572) "></path>
            </g>
        </g>
    </g>
</svg>