<?xml version="1.0" encoding="UTF-8"?>
<svg width="21px" height="25px" viewBox="0 0 21 25" version="1.1" xmlns="http://www.w3.org/2000/svg" xmlns:xlink="http://www.w3.org/1999/xlink">
    <!-- Generator: Sketch 52.6 (67491) - http://www.bohemiancoding.com/sketch -->
    <title>Shape-14</title>
    <desc>Created with Sketch.</desc>
    <g id="Welcome" stroke="none" stroke-width="1" fill="none" fill-rule="evenodd">
        <g id="Performance---mobile" transform="translate(-35.000000, -534.000000)" fill="#40484E" fill-rule="nonzero" stroke="#40484E">
            <g id="Group-8" transform="translate(-1.000000, 522.000000)">
                <g id="Group-4" transform="translate(24.000000, 0.000000)">
                    <g id="Defensive-3" transform="translate(0.000000, 2.000000)">
                        <path d="M20.2332474,34.2940934 L24.4952037,34.2940934 L24.4952037,31.1882143 L27.5950436,31.1882143 L27.5950436,34.2940934 L31.857,34.2940934 L31.857,26.7882189 L30.6301777,26.1842979 L29.4033555,25.5631221 L29.4033555,17.7984243 L30.6301777,16.5647001 L31.857,15.3352896 L31.857,11 L13,11 L13,15.3352896 L14.1629792,16.4999943 L15.3250956,17.664699 L15.3250956,25.5717496 L14.1629792,26.1411607 L13,26.7105719 L13,34.2940934 L17.1334075,34.2940934 L17.1334075,31.1882143 L20.2332474,31.1882143 L20.2332474,34.2940934 Z M20.87858,30.6705678 L16.6166237,30.6705678 L16.6166237,33.6470353 L13.5176465,33.6470353 L13.5176465,27.111748 L14.7444688,26.4905721 L15.971291,25.8823375 L28.7571601,25.8823375 L29.9839823,26.4905721 L31.2108046,27.111748 L31.2108046,33.6470353 L28.1118274,33.6470353 L28.1118274,30.6705678 L23.97842,30.6705678 L23.97842,33.6470353 L20.87858,33.6470353 L20.87858,30.6705678 Z M28.7571601,18.1176397 L28.7571601,25.2352793 L15.9704283,25.2352793 L15.9704283,18.1176397 L28.7571601,18.1176397 Z M31.2108046,11.5176465 L31.2108046,15.0764663 L30.0228058,16.2627396 L28.8218659,17.4705815 L15.9057225,17.4705815 L14.7177237,16.2799945 L13.5176465,15.0764663 L13.5176465,11.5176465 L31.2108046,11.5176465 Z" id="Shape-14" transform="translate(22.428500, 22.647047) rotate(180.000000) translate(-22.428500, -22.647047) "></path>
                    </g>
                </g>
            </g>
        </g>
    </g>
</svg>