<?xml version="1.0" encoding="UTF-8"?>
<svg width="28px" height="25px" viewBox="0 0 28 25" version="1.1" xmlns="http://www.w3.org/2000/svg" xmlns:xlink="http://www.w3.org/1999/xlink">
    <!-- Generator: Sketch 52.6 (67491) - http://www.bohemiancoding.com/sketch -->
    <title>Shape-13</title>
    <desc>Created with Sketch.</desc>
    <g id="Welcome" stroke="none" stroke-width="1" fill="none" fill-rule="evenodd">
        <g id="Performance---mobile" transform="translate(-89.000000, -534.000000)" fill="#40484E" fill-rule="nonzero" stroke="#40484E">
            <g id="Group-8" transform="translate(-1.000000, 501.000000)">
                <g id="Group-4" transform="translate(9.000000, 0.000000)">
                    <g id="Cautious-3" transform="translate(72.000000, 23.000000)">
                        <path d="M22.8960639,33.6441463 C23.2022348,33.6529649 23.5086567,33.6423214 23.8134778,33.61228 C26.6688657,33.0898405 29.8756214,31.9476853 30.0517246,31.3908637 C30.2244735,30.8709399 30.002248,30.625234 29.0185858,30.2461928 C27.8293134,29.8595892 26.8808168,28.9524523 26.4416087,27.7815863 C26.3356461,27.4441166 26.2637282,27.0968881 26.2269305,26.7450931 C26.2269305,26.3845008 25.7531289,26.0180384 25.2877133,26.0180384 C24.49127,25.85347 23.7486561,25.4922529 23.1275138,24.9672892 C22.8041754,24.6456334 22.5366429,24.2723916 22.3358879,23.8628704 L22.0138706,23.1760679 L27.0311352,18.1445473 C29.8244676,15.3268958 32.1876051,13.0803219 32.3569996,13.0291681 C32.4085228,13.0180829 32.4611155,13.0127393 32.5138154,13.013235 C32.993795,13.0305534 33.441862,13.2581138 33.7389906,13.6354664 C33.9921579,14.1899375 33.9144981,14.8393675 33.5377298,15.31851 C33.2632247,15.6621439 33.1988587,16.1284756 33.3700124,16.5336222 C33.563621,16.8495677 33.9179965,17.0303186 34.2874263,17.0015536 C34.7067197,17.0015536 34.8744371,16.9126634 35.2098718,16.5034331 C35.8535263,15.7263773 36.1106721,14.6996439 35.9092531,13.7109392 C35.6923926,12.6714856 35.0174197,11.7856993 34.0727481,11.3008408 C33.5936766,11.0882649 33.072906,10.9862317 32.549036,11.002304 C32.0827413,10.984242 31.6184535,11.0725685 31.191364,11.2605887 C30.9515282,11.3872153 28.5380756,13.6857816 25.6650773,16.5654885 L20.6075606,21.6280367 L20.0842825,21.4661895 C18.763517,21.0116252 17.8299165,19.8275785 17.6959874,18.4372141 C17.5878097,17.6774545 17.3655842,17.4929654 16.3005791,17.2791258 C14.8580565,17.0035229 13.7064597,15.9160491 13.3487537,14.4916634 C13.1080793,13.7780261 12.8942397,13.5130327 12.558805,13.5130327 C12.4623866,13.5153086 12.3668501,13.5319851 12.2753626,13.5625093 C11.7218954,13.7386125 10.5872875,16.7239814 10.1788958,19.0703471 C9.86749544,21.0437524 9.9633857,23.0600165 10.4606609,24.9949625 C10.8486348,26.3382555 11.446366,27.6118306 12.2317561,28.7686029 C12.6082816,29.2902039 12.6778843,29.4780473 12.5537735,29.6440875 C12.2977816,29.9581266 12.1754996,30.3602114 12.2133072,30.7636008 C12.2517823,30.997802 12.3841336,31.2061719 12.5797696,31.3405485 C12.7478937,31.4641669 12.9505665,31.53192 13.1592331,31.534262 C13.4272758,31.5245223 13.6849744,31.4283266 13.8938351,31.2600442 L14.2829393,30.9908578 L15.0477305,31.5158131 C16.9377715,32.9220168 19.2390685,33.6651409 21.5945772,33.6298903 C22.0633472,33.6374376 22.5237314,33.6441463 22.8960639,33.6441463 Z M32.6085757,12.3104993 C32.3380504,12.3099099 32.0702984,12.3650017 31.8219813,12.4723465 C31.5880156,12.5763313 29.2223623,14.8514172 26.3216908,17.7638289 L21.2373393,22.8792081 L21.3983479,23.472089 C21.9309989,25.1957144 23.3994802,26.4650134 25.1820514,26.7425773 C25.4696866,26.8113414 25.5577382,26.9102947 25.5577382,27.1618707 C25.690026,28.0469395 26.0676928,28.8772255 26.647901,29.5585516 C27.301835,30.2291502 28.113881,30.7245675 29.0093613,30.9992437 C29.1301178,30.9992437 29.194689,31.0185312 29.2022363,31.0571062 C29.2215238,31.1619295 28.8139706,31.3875093 28.1372311,31.6441169 C26.1751436,32.4760926 24.0760449,32.9378204 21.9459451,33.0059818 C21.4049213,33.0065879 20.8646599,32.9653744 20.3299884,32.8827095 C18.4148978,32.5398818 16.6040306,31.7621155 15.0368288,30.6093008 C14.7807597,30.3949834 14.5017707,30.209647 14.2049508,30.0566722 C14.0066756,30.169847 13.8220893,30.3054729 13.6548379,30.460871 C13.4988666,30.6310756 13.2936504,30.748342 13.0678271,30.7963057 C13.0183956,30.8012457 12.971265,30.7743139 12.950425,30.7292187 C12.9059799,30.6243954 12.9822913,30.3686264 13.3437222,29.9912624 L13.7462438,29.571969 L13.1692961,28.8172409 C11.2126307,26.1929504 10.3624446,22.9063065 10.8011271,19.6623894 C11.0603953,18.0464214 11.5292013,16.4711429 12.1956969,14.9763666 C12.3634143,14.6585422 12.4581746,14.506758 12.52023,14.506758 C12.5571278,14.506758 12.5839626,14.559589 12.6116359,14.6392547 C13.0365043,16.3401483 14.40661,17.6419448 16.1269916,17.9793457 L16.8917827,18.1546104 L17.0662088,18.9219173 C17.218584,19.73919 17.5934905,20.4985787 18.1496629,21.1164988 C18.7271998,21.694417 19.460203,22.0920916 20.2595471,22.2611697 L20.8901644,22.4230169 L26.0952723,17.1986215 C30.964107,12.3255938 31.3465026,11.9725488 31.9309976,11.8123788 C32.1677592,11.7515507 32.4110908,11.7200077 32.6555365,11.718457 C33.1837886,11.72142 33.6984992,11.8858699 34.1306106,12.1897428 C34.7804917,12.6724976 35.1776972,13.4228432 35.2115489,14.2317015 C35.2959514,14.9241041 35.0554121,15.6166219 34.559967,16.1076201 C34.4140529,16.2367625 34.33271,16.2854005 34.2605916,16.2854005 C34.1989845,16.2802942 34.14223,16.2499441 34.1037758,16.2015418 C33.9813422,16.0782696 33.9838579,15.9986038 34.1171932,15.811599 C34.703805,15.1505657 34.8162661,14.1939768 34.3989584,13.414918 C34.0651474,12.732258 33.3684377,12.3024843 32.6085757,12.3104993 Z" id="Shape-13" transform="translate(22.988195, 22.323572) rotate(180.000000) translate(-22.988195, -22.323572) "></path>
                    </g>
                </g>
            </g>
        </g>
    </g>
</svg>