<?xml version="1.0" encoding="UTF-8"?>
<svg width="31px" height="23px" viewBox="0 0 31 23" version="1.1" xmlns="http://www.w3.org/2000/svg" xmlns:xlink="http://www.w3.org/1999/xlink">
    <!-- Generator: Sketch 52.6 (67491) - http://www.bohemiancoding.com/sketch -->
    <title>Group</title>
    <desc>Created with Sketch.</desc>
    <g id="Welcome" stroke="none" stroke-width="1" fill="none" fill-rule="evenodd">
        <g id="Performance---mobile" transform="translate(-200.000000, -534.000000)" fill="#5C686F" fill-rule="nonzero" stroke="#FFFFFF" stroke-width="0.8">
            <g id="Group-8" transform="translate(-1.000000, 489.000000)">
                <g id="Group-4" transform="translate(9.000000, 0.000000)">
                    <g id="Group-2" transform="translate(185.000000, 35.000000)">
                        <g id="Group" transform="translate(8.000000, 10.000000)">
                            <path d="M7.1967027,21.9431067 C7.42191248,21.944405 7.64651838,21.9196826 7.86605405,21.869431 C7.97186486,21.8498364 8.44762162,21.7040526 9.32075676,21.4226743 C9.95100128,21.195366 10.6111832,21.0617452 11.2802162,21.0260797 C11.6499409,21.0121224 12.014671,21.1149598 12.3226486,21.3199986 C12.4729264,21.4332507 12.6454881,21.5133877 12.828973,21.5551337 C12.8397946,21.5558617 12.8506151,21.5536976 12.8603243,21.5488635 C12.9633716,20.4262348 12.9979221,19.2983703 12.9637838,18.1715391 L12.9637838,14.8616202 L13.5586757,14.0825391 C15.3292432,11.7515662 16.7627838,9.92848508 16.8223514,9.92848508 C17.027671,10.0618602 17.2193213,10.2151804 17.3945135,10.3862148 C17.5765279,10.5591918 17.776178,10.7126072 17.9901892,10.8439445 C18.4459283,10.3158283 18.8704176,9.76153221 19.2614865,9.18389048 C19.6485018,8.60320276 20.0723533,8.04792845 20.5304324,7.52148508 C20.5633514,7.52148508 21.0351892,7.76132291 21.6175405,8.08267427 C21.9375853,8.30141926 22.2944189,8.46071997 22.6709459,8.55294454 C22.7090446,8.55551396 22.7465039,8.54217617 22.7744054,8.5161067 C22.8590541,8.43145805 24.2761351,6.60759318 25.8092162,4.59718778 L28.7178378,0.824052643 L21.5955946,0.789566157 C19.7591892,0.780944535 17.215027,0.780944535 14.4333784,0.780944535 C11.6517297,0.780944535 9.09189189,0.780944535 7.23667568,0.789566157 L0,0.824052643 L2.71424324,4.14416075 C4.21362162,5.97507967 5.47472973,7.4768094 5.51940541,7.49875535 C5.52458328,7.49975017 5.52990321,7.49975017 5.53508108,7.49875535 C5.7845115,7.42557098 6.02208979,7.31681292 6.24048649,7.17583643 L6.86751351,6.82078237 L7.26802703,7.31378237 C7.84332432,8.02624183 9.541,10.4402959 11.1375676,12.8096743 L12.4997838,14.8365391 L12.4997838,15.7182959 C12.4997838,16.3657013 12.4856757,16.5287283 12.3782973,16.5287283 C12.3493724,16.5268482 12.3209948,16.5199527 12.2944324,16.5083499 C11.9857985,16.4338318 11.6709534,16.3879169 11.3538919,16.3711878 C11.2237838,16.3617824 11.1187568,16.3578635 11.0278378,16.3578635 C10.3823424,16.4000002 9.74752408,16.5436279 9.14675676,16.783458 C8.46789654,17.0407174 7.75483168,17.1965353 7.03054054,17.2458905 C6.69902073,17.2498089 6.3720084,17.1688652 6.08059459,17.0107553 C5.93825462,16.9244171 5.78033417,16.8668947 5.61581081,16.841458 C5.3022973,16.841458 5.29054054,17.385404 5.29054054,19.1065932 C5.29054054,21.0872148 5.29837838,21.1522689 5.56486486,21.4305121 C6.03077605,21.7895552 6.60917086,21.9712412 7.1967027,21.9431067 Z M11.3319459,20.5213229 C10.5786107,20.5505122 9.83433997,20.6961936 9.12559459,20.9531878 C8.38335135,21.1961608 7.73359459,21.3889716 7.57997297,21.4109175 C7.4779766,21.4282903 7.37462044,21.4364224 7.27116216,21.4352148 C6.89689171,21.432285 6.52584183,21.365761 6.17386486,21.2384851 L5.86505405,21.1240526 L5.86505405,17.4755391 L6.11743243,17.624458 C6.35589207,17.7288617 6.61537117,17.7763568 6.87535135,17.7631878 C7.66429069,17.7273725 8.44328607,17.5725247 9.18594595,17.3038905 C9.8966332,17.0479763 10.6410943,16.897975 11.3954324,16.8587013 C11.6484937,16.8450631 11.9008855,16.8957572 12.1290541,17.0060526 C12.3822162,17.1439986 12.3924054,17.2161067 12.3924054,18.929458 L12.3924054,20.7125662 L12.0718378,20.6208635 C11.8318263,20.5496789 11.5822368,20.5161007 11.3319459,20.5213229 Z M16.7635676,9.23953913 C16.0622704,10.0264463 15.4009677,10.8481044 14.7821622,11.701404 C13.7820541,13.0126743 12.8509189,14.1507283 12.7897838,14.1632689 C12.2615445,13.5660202 11.7828948,12.9266847 11.3585946,12.2516202 C9.68208108,9.76937697 8.23835135,7.7378094 7.59172973,6.9501067 C7.30956757,6.6115121 7.05405405,6.29721481 7.03054054,6.2635121 C7.03054054,6.2635121 7.02348649,6.2588094 7.01564865,6.2588094 C6.77116385,6.33759203 6.53758418,6.44687677 6.32043243,6.58407967 L5.64324324,6.9501067 L3.35537838,4.14416075 L1.05340541,1.33899859 L14.3471622,1.33899859 C21.2515135,1.33899859 27.5656757,1.3821067 27.5931081,1.42991751 C27.5460811,1.54278237 26.2489189,3.24672832 25.0638378,4.78137697 C23.8787568,6.31602562 22.5839459,7.96902562 22.5431892,7.96902562 L22.5416216,7.96902562 C22.15256,7.80843697 21.7751676,7.6209193 21.4121892,7.40783643 C21.0666044,7.1972698 20.6965112,7.02985922 20.3101892,6.90934994 C20.3028019,6.90830504 20.2953329,6.91060319 20.2898108,6.91562021 C20.2443514,6.97205264 19.7239189,7.68999859 19.1447027,8.49572832 C18.5537297,9.32967427 18.0285946,10.0366472 17.9878378,10.0875932 C17.9783892,10.095987 17.9659596,10.1002244 17.9533514,10.0993499 C17.7340711,10.0231863 17.5373634,9.89330537 17.3811892,9.72156616 C17.1996934,9.53210347 16.9916492,9.36999793 16.7635676,9.24032291 L16.7635676,9.23953913 Z" id="Shape-2" transform="translate(14.358919, 11.363445) rotate(180.000000) translate(-14.358919, -11.363445) "></path>
                            <path d="M13.4525042,21.1574595 L14.9064232,19.2458108 C15.7192069,18.164973 16.4293151,17.2299189 16.5210178,17.1162703 C16.5750988,17.0378919 16.6135042,16.994 16.6715042,16.994 C16.7718286,16.994 16.9238826,17.1084324 17.3338015,17.4368378 C17.541487,17.6303109 17.7702135,17.799884 18.0156934,17.9423784 L18.0203961,17.9423784 C18.0431259,17.8969189 20.4226934,15.0502162 20.6194232,14.8166486 C20.6245648,14.8114755 20.6317585,14.8088857 20.6390178,14.8095946 C21.0415063,14.9817547 21.416713,15.2117372 21.7527745,15.4922703 C22.4221259,15.9876216 22.6854772,16.163973 22.8304772,16.163973 C22.8742365,16.1642509 22.915755,16.1446449 22.9433421,16.1106757 C23.3046664,15.7274054 26.5134772,11.378973 26.4846726,11.3115676 C26.3287351,11.3551145 26.1814212,11.4245322 26.0486934,11.5169189 C25.8566664,11.6305676 25.1316664,12.0216757 24.4340988,12.3790811 L23.1628015,13.031973 L22.2128556,12.4049459 C21.8348836,12.1276867 21.4131125,11.9157415 20.9650718,11.7779189 C20.7659907,11.7779189 20.2698556,12.1031892 19.3050178,12.8658108 C18.6278286,13.4074054 17.9232069,13.9537027 17.8738286,13.9537027 C17.8401259,13.9537027 17.2021259,13.4732432 16.4308826,12.8564054 C15.6306394,12.2035135 15.019288,11.7214865 14.972261,11.7034595 L14.9675583,11.7034595 C14.5089007,12.1329926 14.0923821,12.6054144 13.7236934,13.1142703 C13.0966664,13.9058919 12.5009907,14.6457838 12.4179096,14.7288649 C12.4055402,14.7431693 12.3874378,14.7512148 12.3685313,14.7508108 C12.2298015,14.7508108 11.898261,14.4059459 10.952234,13.2741622 L9.62842316,11.6658378 L8.64399073,12.0663514 C8.24811308,12.2439796 7.83311451,12.3754747 7.40717992,12.4582432 C7.24415289,12.4558919 5.95874749,12.2152703 4.91161235,12.0091351 C3.73358532,11.7669459 2.73974749,11.5851081 2.66685559,11.5851081 C2.66136911,11.6015676 3.47807181,12.4425676 4.57928803,13.5445676 L6.51445019,15.4789459 L7.14147722,15.0549189 C7.38227595,14.8815362 7.64404942,14.7393253 7.9205583,14.6316757 C8.00442316,14.6434324 9.35801776,16.1992432 10.7602069,17.8953514 C12.2109907,19.6612162 13.4383961,21.1433514 13.4501529,21.1582432 L13.4525042,21.1574595 Z M16.5594232,16.2901622 C16.5398591,16.2881342 16.5208019,16.297209 16.5100448,16.3136757 C16.4959367,16.3317027 16.4191259,16.4328108 16.2929367,16.6013243 C16.0193961,16.9657838 15.5091529,17.6437568 14.943261,18.3836486 C13.8420448,19.8407027 13.5442069,20.2098649 13.3819637,20.2098649 C13.3379267,20.2055 13.2977861,20.1827252 13.2714502,20.1471622 C13.1695583,20.0452703 12.0753961,18.7277297 10.7633421,17.1468378 C9.88393668,16.0926486 9.06174749,15.1074324 8.61969343,14.5791622 L8.24347722,14.1277027 C8.16509884,14.0493243 8.10788262,13.996027 8.02793668,13.996027 C7.91272046,13.996027 7.74028803,14.1018378 7.36250424,14.3338378 C7.11930659,14.4990147 6.85886531,14.6372509 6.58577451,14.7461081 C6.13110106,14.4036889 5.70870989,14.0203886 5.32388262,13.601 C4.94592558,13.2642093 4.61200548,12.8810439 4.33004478,12.4605946 C4.33165779,12.4573835 4.33509332,12.4555095 4.33866641,12.4558919 C4.42801776,12.4558919 5.16869343,12.5812973 6.01047722,12.7537297 L7.52161235,13.0358919 L8.41512587,12.6808378 C8.73885828,12.5383773 9.07707603,12.4314196 9.42385559,12.3618378 C9.43113471,12.3608086 9.43852243,12.3608086 9.44580154,12.3618378 C9.9761424,12.8719823 10.4695989,13.4191324 10.9224502,13.9991622 C11.6568556,14.8832703 12.2736934,15.602 12.2964232,15.602 C12.3191529,15.602 12.8764232,14.9279459 13.6249367,13.9991622 C14.1046124,13.3932973 14.914261,12.3751622 14.9416934,12.3618378 C15.4584658,12.7084155 15.9556251,13.0833783 16.4308826,13.485 L17.872261,14.6426486 L19.3724232,13.4411081 C20.1891259,12.7827297 20.917261,12.227027 20.964288,12.227027 C21.3523478,12.4325841 21.7272023,12.6621563 22.0866664,12.9144054 L23.1400718,13.601 L23.9301259,13.2004865 C24.1839637,13.0623257 24.449046,12.9459097 24.7225313,12.8524865 C24.7280178,12.8524865 24.7311529,12.8524865 24.7311529,12.8571892 C24.7311529,12.8979459 24.234234,13.5798378 23.7435853,14.2327297 C23.2529367,14.8856216 22.7395583,15.544 22.7050718,15.544 C22.6705853,15.544 21.2064772,14.5 20.772261,14.1504324 C20.7660594,14.1461322 20.758642,14.1439344 20.7510988,14.1441622 C20.6233421,14.1441622 20.1609096,14.6230541 19.2948286,15.6505946 C18.8703413,16.2226231 18.3764327,16.7397001 17.8244502,17.1899459 C17.8216328,17.1907518 17.818646,17.1907518 17.8158286,17.1899459 C17.7515583,17.1468378 17.4458826,16.9101351 17.1402069,16.6522703 C16.979404,16.4861196 16.7802284,16.3620386 16.5602069,16.2909459 L16.5594232,16.2901622 Z" id="Shape-3" transform="translate(14.575847, 16.234905) rotate(180.000000) translate(-14.575847, -16.234905) "></path>
                        </g>
                    </g>
                </g>
            </g>
        </g>
    </g>
</svg>