<?xml version="1.0" encoding="UTF-8"?>
<svg width="27px" height="27px" viewBox="0 0 27 27" version="1.1" xmlns="http://www.w3.org/2000/svg" xmlns:xlink="http://www.w3.org/1999/xlink">
    <!-- Generator: Sketch 52.3 (67297) - http://www.bohemiancoding.com/sketch -->
    <title>Group 35</title>
    <desc>Created with Sketch.</desc>
    <g id="Welcome" stroke="none" stroke-width="1" fill="none" fill-rule="evenodd">
        <g id="Homepage" transform="translate(-323.000000, -3206.000000)">
            <g id="Group-36" transform="translate(312.000000, 3195.000000)">
                <g id="Group-35" transform="translate(12.000000, 12.000000)">
                    <circle id="Oval" stroke="#637688" fill-rule="nonzero" cx="12.5" cy="12.5" r="12.5"></circle>
                    <path d="M12.6,5 C13.1600028,5 13.6033317,5.1366653 13.93,5.41 C14.2566683,5.6833347 14.42,6.0599976 14.42,6.54 C14.42,7.0200024 14.2566683,7.3966653 13.93,7.67 C13.6033317,7.9433347 13.1600028,8.08 12.6,8.08 C12.0399972,8.08 11.5966683,7.9433347 11.27,7.67 C10.9433317,7.3966653 10.78,7.0200024 10.78,6.54 C10.78,6.0599976 10.9433317,5.6833347 11.27,5.41 C11.5966683,5.1366653 12.0399972,5 12.6,5 Z M14.16,18.64 C14.16,19.1866694 14.2566657,19.5633323 14.45,19.77 C14.6433343,19.9766677 14.973331,20.08 15.44,20.08 L15.44,20.5 C14.10666,20.4466664 13.2200022,20.42 12.78,20.42 C12.3666646,20.42 11.4400072,20.4466664 10,20.5 L10,20.08 C10.4800024,20.08 10.8133324,19.9766677 11,19.77 C11.1866676,19.5633323 11.28,19.1866694 11.28,18.64 L11.28,12.34 C11.28,11.7266636 11.1866676,11.2800014 11,11 C10.8133324,10.7199986 10.4800024,10.58 10,10.58 L10,10.16 C10.4266688,10.2000002 10.839998,10.22 11.24,10.22 C12.4266726,10.22 13.3999962,10.1266676 14.16,9.94 L14.16,18.64 Z" id="i" fill="#637688"></path>
                </g>
            </g>
        </g>
    </g>
</svg>