<?xml version="1.0" encoding="UTF-8"?>
<svg width="29px" height="29px" viewBox="0 0 29 29" version="1.1" xmlns="http://www.w3.org/2000/svg" xmlns:xlink="http://www.w3.org/1999/xlink">
    <!-- Generator: Sketch 52.6 (67491) - http://www.bohemiancoding.com/sketch -->
    <title>Group 2</title>
    <desc>Created with Sketch.</desc>
    <g id="Welcome" stroke="none" stroke-width="1" fill="none" fill-rule="evenodd">
        <g id="Performance---mobile" transform="translate(-145.000000, -488.000000)" fill="#FFFFFF" fill-rule="nonzero" stroke="#FFFFFF">
            <g id="Group-8" transform="translate(-1.000000, 489.000000)">
                <g id="Group-4" transform="translate(9.000000, 0.000000)">
                    <g id="Measured-3" transform="translate(105.000000, 0.000000)">
                        <g id="Group-2" transform="translate(33.000000, 0.000000)">
                            <path d="M13.4201446,26.999188 C14.3529267,27.0089543 15.2845412,26.9306072 16.2025224,26.765195 C20.8908554,25.8153551 24.7279854,22.466186 26.2946555,17.9564605 C26.8375112,16.4694203 27.0711165,14.8876549 26.9812292,13.3076006 C27.0343719,12.2729572 26.922733,11.2364509 26.6504711,10.2366932 C25.9770634,7.64245722 24.566334,5.29774348 22.5881595,3.4848967 C20.6301665,1.70386156 18.1848608,0.544969092 15.5640589,0.155997035 C14.8769976,0.0525093177 14.1831481,0.000365832523 13.4883009,1.73675626e-06 C8.97527728,-0.00227532583 4.75659441,2.23466755 2.23350272,5.96782186 C1.38065506,7.23191436 0.743276653,8.62805228 0.347178905,10.0996973 C0.0535754382,11.2049509 -0.0541314447,12.3511563 0.0284483141,13.4915951 C-0.05826453,14.6436963 0.0536080928,15.8021022 0.359206475,16.9164919 C0.997007573,19.2970585 2.26798247,21.461336 4.03763814,23.1803031 C5.01280269,24.1305564 6.12206393,24.9333665 7.33018529,25.5632312 C8.51425103,26.1757277 9.7861783,26.6017547 11.1008283,26.8261932 C11.8676213,26.9493413 12.6435218,27.0072147 13.4201446,26.999188 Z M13.5053399,0.669981543 C14.5662077,0.597806614 15.6316676,0.705322335 16.6565631,0.987971959 C18.9721227,1.58220309 21.0747435,2.81119487 22.7264765,4.53586502 C24.3334583,6.13881563 25.473606,8.14732741 26.0250374,10.3466899 C27.1343151,14.7464092 25.8495963,19.4042287 22.6402789,22.61832 C20.7993185,24.4585064 18.451839,25.7114862 15.8958194,26.2182115 C15.1497137,26.3421315 14.3939294,26.398692 13.6376432,26.3872064 C12.7307546,26.3983322 11.8247919,26.3253539 10.93144,26.169213 C5.80084604,25.1363203 1.798188,21.1232274 0.788189786,15.9995195 C0.456937142,14.0903975 0.519348574,12.1339365 0.971610221,10.2496928 C1.33224491,8.89260366 1.91252226,7.60335337 2.68954806,6.43280785 C4.49707697,3.76573979 7.20339664,1.83384887 10.3170317,0.987971959 C11.3550462,0.707794173 12.4322746,0.600355273 13.5053399,0.669981543 Z" id="Shape-4" transform="translate(13.500000, 13.500000) rotate(180.000000) translate(-13.500000, -13.500000) "></path>
                            <path d="M13.551,4.99979294 C13.551,3.99985363 13.538,3.97351377 13.269,4.00863359 C13,4.04375341 13,4.10423754 13,4.99979294 C13,5.89534834 13.012,5.95095472 13.269,5.98997674 C13.526,6.02899876 13.551,6.00168335 13.551,4.99979294 Z" id="Shape-5" transform="translate(13.500000, 5.000000) rotate(180.000000) translate(-13.500000, -5.000000) "></path>
                            <path d="M9.92663439,6.94758673 C10.0628856,6.7932167 10.0193223,6.4961272 9.71159845,5.74757816 C9.49934314,5.21359376 9.35196937,5 9.19347305,5 C8.89872552,5 8.94414259,5.51068326 9.3065523,6.29515489 C9.61242239,6.9242856 9.77184558,7.10195677 9.92663439,6.94758673 Z" id="Shape-6" transform="translate(9.500000, 6.000000) rotate(180.000000) translate(-9.500000, -6.000000) "></path>
                            <path d="M16.5659416,6.58121291 C16.6424683,6.35410318 16.7955216,5.96129108 16.8845062,5.72248471 C17.0366697,5.34136925 17.0366697,5.25754334 16.8951843,5.11425952 C16.8061998,5.01873698 16.6860707,4.97097571 16.6317901,5.01873698 C16.3125904,5.57068124 16.0977525,6.18717808 16,6.83171591 C16.109451,7.14460098 16.4030999,6.998393 16.5659416,6.58121291 Z" id="Shape-7" transform="translate(16.500000, 6.000000) rotate(180.000000) translate(-16.500000, -6.000000) "></path>
                            <path d="M7.89347098,8.91887 C8.14587,8.6829917 7.95530874,8.31266276 7.26247341,7.67815012 C6.98762631,7.38111165 6.64174655,7.14878269 6.25287731,7 C5.76448519,7 6.00047828,7.50477957 6.81446514,8.27020467 C7.628452,9.03562976 7.72562563,9.09224055 7.89347098,8.91887 Z" id="Shape-8" transform="translate(7.000000, 8.000000) rotate(180.000000) translate(-7.000000, -8.000000) "></path>
                            <path d="M20.2080352,8.38511654 C21.008956,7.66365149 21.2557806,7 20.7004252,7 C20.3150765,7 18.9285769,8.37066315 19.0028761,8.69465998 C19.0985836,9.18125744 19.4222261,9.0921282 20.2080352,8.38511654 Z" id="Shape-9" transform="translate(20.000000, 8.000000) rotate(180.000000) translate(-20.000000, -8.000000) "></path>
                            <path d="M11.7620696,22.9993505 C11.9723885,23.009341 12.1732489,22.9035667 12.296717,22.7178021 C12.6016085,21.1409586 12.8121033,19.5441923 12.9268706,17.9376005 C13.1478457,15.8657718 13.4250009,13.4348669 13.4764993,13.4073241 C13.9891662,13.1878287 14.4322304,12.8107397 14.7517878,12.3219348 C15.1277253,11.5244296 15.0734867,10.5668419 14.6104012,9.82574332 C14.2238141,9.29171018 13.6296652,8.98618602 13.0055227,9.00048018 C12.3680832,8.99076634 11.7629181,9.30533186 11.3688089,9.85124589 C11.0444892,10.3840272 10.9276236,11.0353076 11.0439006,11.6619283 C11.0981394,12.1709205 11.3393308,12.6342629 11.7124439,12.9462377 L11.975554,13.1329165 L11.4952141,17.7131779 C11.2814352,19.3221221 11.1510778,20.9429163 11.1047624,22.567847 C11.2254133,22.8414819 11.4836344,23.0109967 11.7620696,22.9993505 Z M12.995223,9.61254184 C13.5604234,9.60293981 14.0770548,9.95936628 14.3107352,10.52012 C14.5444155,11.0808737 14.4506622,11.7392112 14.0720084,12.1964621 C13.8797467,12.4364508 13.6359007,12.6208014 13.3622664,12.7330362 C13.1921404,12.7662047 13.0380727,12.8633057 12.9268706,13.0074438 C12.8669451,13.1094541 12.6075803,15.4148864 12.3772418,17.6499315 C12.1197497,20.1593844 11.8837932,22.1822481 11.8388491,22.2546754 C11.793905,22.3271027 11.7733057,22.3485249 11.7508336,22.3485249 C11.7424807,22.3484591 11.734588,22.3443466 11.7292979,22.3373038 C11.6253647,22.210811 11.7068259,21.0835975 12.0785509,17.5122177 L12.5719995,12.8462676 L12.0682512,12.3219348 C11.62911,11.8700293 11.5682483,11.7323154 11.5682483,11.2732691 C11.5377634,10.8419769 11.6749173,10.4165596 11.9462614,10.1007667 C12.2176055,9.78497376 12.5981987,9.60783187 12.995223,9.61254184 Z" id="Shape-10" transform="translate(13.000000, 16.000000) rotate(180.000000) translate(-13.000000, -16.000000) "></path>
                            <path d="M21.1468674,10.7722495 C21.739364,10.5426206 21.9712105,10.4148505 21.9918191,10.236151 C22.0546753,9.91002436 21.7651247,9.91895933 20.7820955,10.2799323 C20.2524551,10.4872238 20,10.6409054 20,10.760634 C20,11.0778257 20.2895505,11.0778257 21.1468674,10.7722495 Z" id="Shape-11" transform="translate(21.000000, 10.500000) rotate(180.000000) translate(-21.000000, -10.500000) "></path>
                            <path d="M5.90237627,10.8966019 C6.12998506,10.6554099 6.00048351,10.5567813 5.07435122,10.216064 C4.44940815,9.99997754 4.18549969,9.9542497 4.0893546,10.0421189 C3.86174582,10.2510324 4.06580886,10.4590492 4.73784341,10.6894817 C5.08612409,10.8212855 5.45795051,10.9530892 5.56586846,10.9853677 C5.68732157,11.0226025 5.82131278,10.9872576 5.90237627,10.8966019 Z" id="Shape-12" transform="translate(5.000000, 10.500000) rotate(180.000000) translate(-5.000000, -10.500000) "></path>
                        </g>
                    </g>
                </g>
            </g>
        </g>
    </g>
</svg>