<?xml version="1.0" encoding="UTF-8"?>
<svg width="28px" height="25px" viewBox="0 0 28 25" version="1.1" xmlns="http://www.w3.org/2000/svg" xmlns:xlink="http://www.w3.org/1999/xlink">
    <!-- Generator: Sketch 52.6 (67491) - http://www.bohemiancoding.com/sketch -->
    <title>Shape-13</title>
    <desc>Created with Sketch.</desc>
    <g id="Welcome" stroke="none" stroke-width="1" fill="none" fill-rule="evenodd">
        <g id="Performance---mobile" transform="translate(-47.000000, -495.000000)" fill="#FF9E55" fill-rule="nonzero" stroke="#FF9E55">
            <g id="Group-8" transform="translate(-1.000000, 496.000000)">
                <g id="Group-4" transform="translate(9.000000, 0.000000)">
                    <g id="Cautious-3" transform="translate(40.000000, 0.000000)">
                        <path d="M12.8960639,22.6441463 C13.2022348,22.6529649 13.5086567,22.6423214 13.8134778,22.61228 C16.6688657,22.0898405 19.8756214,20.9476853 20.0517246,20.3908637 C20.2244735,19.8709399 20.002248,19.625234 19.0185858,19.2461928 C17.8293134,18.8595892 16.8808168,17.9524523 16.4416087,16.7815863 C16.3356461,16.4441166 16.2637282,16.0968881 16.2269305,15.7450931 C16.2269305,15.3845008 15.7531289,15.0180384 15.2877133,15.0180384 C14.49127,14.85347 13.7486561,14.4922529 13.1275138,13.9672892 C12.8041754,13.6456334 12.5366429,13.2723916 12.3358879,12.8628704 L12.0138706,12.1760679 L17.0311352,7.14454733 C19.8244676,4.32689584 22.1876051,2.08032193 22.3569996,2.02916814 C22.4085228,2.01808295 22.4611155,2.01273931 22.5138154,2.01323499 C22.993795,2.0305534 23.441862,2.25811382 23.7389906,2.63546636 C23.9921579,3.18993747 23.9144981,3.83936749 23.5377298,4.31850997 C23.2632247,4.66214394 23.1988587,5.12847561 23.3700124,5.53362218 C23.563621,5.8495677 23.9179965,6.03031859 24.2874263,6.00155359 C24.7067197,6.00155359 24.8744371,5.91266339 25.2098718,5.50343305 C25.8535263,4.72637733 26.1106721,3.69964394 25.9092531,2.71093917 C25.6923926,1.67148563 25.0174197,0.785699291 24.0727481,0.300840836 C23.5936766,0.0882649211 23.072906,-0.0137682923 22.549036,0.00230395214 C22.0827413,-0.0157580387 21.6184535,0.0725684925 21.191364,0.260588672 C20.9515282,0.387215272 18.5380756,2.68578156 15.6650773,5.56548847 L10.6075606,10.6280367 L10.0842825,10.4661895 C8.76351702,10.0116252 7.82991652,8.82757849 7.69598742,7.43721411 C7.58780973,6.67745451 7.36558424,6.49296542 6.30057906,6.2791258 C4.85805651,6.00352291 3.70645974,4.91604914 3.34875369,3.49166343 C3.10807929,2.77802611 2.89423967,2.51303269 2.55880497,2.51303269 C2.4623866,2.51530863 2.36685011,2.53198512 2.27536265,2.56250931 C1.72189539,2.73861253 0.587287514,5.72398137 0.178895765,8.07034711 C-0.132504564,10.0437524 -0.0366142959,12.0600165 0.460660914,13.9949625 C0.848634757,15.3382555 1.44636603,16.6118306 2.23175614,17.7686029 C2.60828159,18.2902039 2.67788429,18.4780473 2.55377345,18.6440875 C2.29778156,18.9581266 2.17549958,19.3602114 2.21330723,19.7636008 C2.2517823,19.997802 2.38413356,20.2061719 2.57976964,20.3405485 C2.74789374,20.4641669 2.9505665,20.53192 3.15923309,20.534262 C3.42727578,20.5245223 3.68497445,20.4283266 3.89383508,20.2600442 L4.28293934,19.9908578 L5.04773046,20.5158131 C6.93777148,21.9220168 9.23906851,22.6651409 11.5945772,22.6298903 C12.0633472,22.6374376 12.5237314,22.6441463 12.8960639,22.6441463 Z M22.6085757,1.31049929 C22.3380504,1.30990989 22.0702984,1.36500173 21.8219813,1.47234653 C21.5880156,1.57633129 19.2223623,3.85141715 16.3216908,6.76382895 L11.2373393,11.8792081 L11.3983479,12.472089 C11.9309989,14.1957144 13.3994802,15.4650134 15.1820514,15.7425773 C15.4696866,15.8113414 15.5577382,15.9102947 15.5577382,16.1618707 C15.690026,17.0469395 16.0676928,17.8772255 16.647901,18.5585516 C17.301835,19.2291502 18.113881,19.7245675 19.0093613,19.9992437 C19.1301178,19.9992437 19.194689,20.0185312 19.2022363,20.0571062 C19.2215238,20.1619295 18.8139706,20.3875093 18.1372311,20.6441169 C16.1751436,21.4760926 14.0760449,21.9378204 11.9459451,22.0059818 C11.4049213,22.0065879 10.8646599,21.9653744 10.3299884,21.8827095 C8.41489779,21.5398818 6.6040306,20.7621155 5.03682883,19.6093008 C4.78075965,19.3949834 4.5017707,19.209647 4.20495077,19.0566722 C4.00667556,19.169847 3.82208929,19.3054729 3.65483786,19.460871 C3.49886656,19.6310756 3.29365038,19.748342 3.06782713,19.7963057 C3.01839563,19.8012457 2.97126499,19.7743139 2.95042498,19.7292187 C2.90597989,19.6243954 2.98229128,19.3686264 3.34372217,18.9912624 L3.74624381,18.571969 L3.16929613,17.8172409 C1.21263072,15.1929504 0.362444562,11.9063065 0.801127136,8.66238935 C1.06039529,7.04642137 1.52920133,5.47114286 2.19569691,3.97636658 C2.36341426,3.6585422 2.45817456,3.50675799 2.52022998,3.50675799 C2.5571278,3.50675799 2.58396257,3.55958896 2.61163594,3.6392547 C3.03650433,5.34014828 4.40661005,6.64194481 6.12699161,6.97934574 L6.89178273,7.15461037 L7.06620877,7.92191725 C7.21858402,8.73918995 7.59349051,9.49857872 8.14966286,10.1164988 C8.72719983,10.694417 9.46020302,11.0920916 10.2595471,11.2611697 L10.8901644,11.4230169 L16.0952723,6.19862147 C20.964107,1.32559385 21.3465026,0.972548826 21.9309976,0.812378756 C22.1677592,0.751550696 22.4110908,0.720007707 22.6555365,0.71845704 C23.1837886,0.721419982 23.6984992,0.885869869 24.1306106,1.1897428 C24.7804917,1.67249765 25.1776972,2.42284324 25.2115489,3.23170154 C25.2959514,3.92410405 25.0554121,4.61662194 24.559967,5.10762011 C24.4140529,5.23676247 24.33271,5.2854005 24.2605916,5.2854005 C24.1989845,5.28029416 24.14223,5.24994412 24.1037758,5.20154182 C23.9813422,5.07826957 23.9838579,4.99860383 24.1171932,4.81159898 C24.703805,4.15056575 24.8162661,3.19397679 24.3989584,2.41491804 C24.0651474,1.73225797 23.3684377,1.30248432 22.6085757,1.31049929 Z" id="Shape-13" transform="translate(12.988195, 11.323572) rotate(180.000000) translate(-12.988195, -11.323572) "></path>
                    </g>
                </g>
            </g>
        </g>
    </g>
</svg>