<?xml version="1.0" encoding="UTF-8"?>
<svg width="21px" height="25px" viewBox="0 0 21 25" version="1.1" xmlns="http://www.w3.org/2000/svg" xmlns:xlink="http://www.w3.org/1999/xlink">
    <!-- Generator: Sketch 52.6 (67491) - http://www.bohemiancoding.com/sketch -->
    <title>Shape-14</title>
    <desc>Created with Sketch.</desc>
    <g id="Welcome" stroke="none" stroke-width="1" fill="none" fill-rule="evenodd">
        <g id="Performance---mobile" transform="translate(-7.000000, -500.000000)" fill="#FF9E55" fill-rule="nonzero" stroke="#FF9E55">
            <g id="Group-8" transform="translate(-1.000000, 501.000000)">
                <g id="Group-4" transform="translate(9.000000, 0.000000)">
                    <g id="Defensive-3">
                        <path d="M7.23324738,23.2940934 L11.4952037,23.2940934 L11.4952037,20.1882143 L14.5950436,20.1882143 L14.5950436,23.2940934 L18.857,23.2940934 L18.857,15.7882189 L17.6301777,15.1842979 L16.4033555,14.5631221 L16.4033555,6.7984243 L17.6301777,5.5647001 L18.857,4.33528961 L18.857,0 L0,0 L0,4.33528961 L1.16297918,5.49999428 L2.32509562,6.66469895 L2.32509562,14.5717496 L1.16297918,15.1411607 L0,15.7105719 L0,23.2940934 L4.13340747,23.2940934 L4.13340747,20.1882143 L7.23324738,20.1882143 L7.23324738,23.2940934 Z M7.87858004,19.6705678 L3.61662369,19.6705678 L3.61662369,22.6470353 L0.517646521,22.6470353 L0.517646521,16.111748 L1.74446877,15.4905721 L2.97129103,14.8823375 L15.7571601,14.8823375 L16.9839823,15.4905721 L18.2108046,16.111748 L18.2108046,22.6470353 L15.1118274,22.6470353 L15.1118274,19.6705678 L10.97842,19.6705678 L10.97842,22.6470353 L7.87858004,22.6470353 L7.87858004,19.6705678 Z M15.7571601,7.11763966 L15.7571601,14.2352793 L2.97042828,14.2352793 L2.97042828,7.11763966 L15.7571601,7.11763966 Z M18.2108046,0.517646521 L18.2108046,4.07646635 L17.0228058,5.26273963 L15.8218659,6.47058151 L2.90572247,6.47058151 L1.7177237,5.27999451 L0.517646521,4.07646635 L0.517646521,0.517646521 L18.2108046,0.517646521 Z" id="Shape-14" transform="translate(9.428500, 11.647047) rotate(180.000000) translate(-9.428500, -11.647047) "></path>
                    </g>
                </g>
            </g>
        </g>
    </g>
</svg>