<?xml version="1.0" encoding="UTF-8"?>
<svg width="9px" height="14px" viewBox="0 0 9 14" version="1.1" xmlns="http://www.w3.org/2000/svg" xmlns:xlink="http://www.w3.org/1999/xlink">
    <!-- Generator: Sketch 52.3 (67297) - http://www.bohemiancoding.com/sketch -->
    <title>Combined Shape</title>
    <desc>Created with Sketch.</desc>
    <g id="Welcome" stroke="none" stroke-width="1" fill="none" fill-rule="evenodd" stroke-linecap="round" stroke-linejoin="round">
        <g id="Homepage" transform="translate(-766.000000, -3272.000000)" fill="#E87722">
            <g id="Group-25" transform="translate(312.000000, 3265.000000)">
                <path d="M462.945877,13.4777933 L463.040758,13.5633108 L463.038095,13.565748 L463.040241,13.5677948 L462.930867,13.6638829 L462.221644,14.3129647 L455.823347,19.8369124 L455.76106,19.8906872 C455.343019,20.2516021 454.71155,20.2052916 454.350635,19.7872499 L454.243085,19.6626769 C453.88217,19.2446352 453.928481,18.6131661 454.346522,18.2522512 L454.408809,18.1984764 L459.793062,13.5500002 L454.408809,8.90152401 L454.346522,8.84774919 C453.928481,8.48683431 453.88217,7.8553652 454.243085,7.43732347 L454.29686,7.37503698 C454.687474,6.92259538 455.370905,6.87247411 455.823347,7.26308801 L462.221644,12.7870357 L462.945877,13.4777933 Z" id="Combined-Shape"></path>
            </g>
        </g>
    </g>
</svg>